<?xml version="1.0" encoding="UTF-8" standalone="no"?>
<svg
   xmlns:dc="http://purl.org/dc/elements/1.1/"
   xmlns:cc="http://creativecommons.org/ns#"
   xmlns:rdf="http://www.w3.org/1999/02/22-rdf-syntax-ns#"
   xmlns:svg="http://www.w3.org/2000/svg"
   xmlns="http://www.w3.org/2000/svg"
   viewBox="0 0 34 42"
   version="1.1"
   id="svg9"
   width="34"
   height="42">
  <defs
     id="defs13" />
  <path
     id="path2"
     d="M 4,0 C 1.79,0 0,1.79 0,4 v 34 c 0,2.21 1.79,4 4,4 h 26 c 2.21,0 4,-1.786094 4,-3.996094 V 3.9921875 C 34,1.7851875 32.21,0 30,0 Z m 8.621094,5.7226562 v 9.9257818 c 0,0 13.21875,-5.207782 13.21875,3.949218 V 36.21875 l -4.546875,0.0039 V 19.539062 c 0,0 1.085718,-3.988281 -13.363281,1.636719 C 7.901687,21.245781 7.902344,5.75 7.902344,5.75 Z M 22.410156,5.75 h 5.175782 c 0,0 -0.886469,2.460469 -3.605469,5.980469 H 18.976562 C 20.776563,9.527469 22.410156,5.75 22.410156,5.75 Z m -14.421875,20.945312 4.75,4.75 -4.75,4.746094 z"
     style="fill:#ffffff;fill-opacity:0.55" />
  <metadata
     id="metadata7">
    <rdf:RDF>
      <rdf:Description
         about="https://iconscout.com/legal#licenses"
         dc:title="heroku"
         dc:description="heroku"
         dc:publisher="Iconscout"
         dc:date="2017-12-15"
         dc:format="image/svg+xml"
         dc:language="en">
        <dc:creator>
          <rdf:Bag>
            <rdf:li>Icons8</rdf:li>
          </rdf:Bag>
        </dc:creator>
      </rdf:Description>
      <cc:Work
         rdf:about="">
        <dc:format>image/svg+xml</dc:format>
        <dc:type
           rdf:resource="http://purl.org/dc/dcmitype/StillImage" />
        <dc:title></dc:title>
      </cc:Work>
    </rdf:RDF>
  </metadata>
</svg>
