<?xml version="1.0" encoding="UTF-8" standalone="no"?>
<svg
   xmlns:dc="http://purl.org/dc/elements/1.1/"
   xmlns:cc="http://creativecommons.org/ns#"
   xmlns:rdf="http://www.w3.org/1999/02/22-rdf-syntax-ns#"
   xmlns:svg="http://www.w3.org/2000/svg"
   xmlns="http://www.w3.org/2000/svg"
   width="144mm"
   height="144mm"
   viewBox="0 0 144 144"
   version="1.1"
   id="svg1305">
  <defs
     id="defs1299" />
  <metadata
     id="metadata1302">
    <rdf:RDF>
      <cc:Work
         rdf:about="">
        <dc:format>image/svg+xml</dc:format>
        <dc:type
           rdf:resource="http://purl.org/dc/dcmitype/StillImage" />
        <dc:title></dc:title>
      </cc:Work>
    </rdf:RDF>
  </metadata>
  <circle
     style="fill:#0061ff;fill-opacity:1;stroke-width:0.436756;stroke-linecap:square;paint-order:stroke fill markers"
     id="path839"
     cx="72.214836"
     cy="71.931465"
     r="70.933846" />
  <g
     id="g2108"
     transform="matrix(0.42327875,0,0,0.42327875,130.57059,-6.0483168)"
     style="fill:#42ffdc;fill-opacity:1">
    <path
       id="path833"
       style="fill:#42ffdc;fill-opacity:1;stroke:none;stroke-width:0.934923;stroke-linejoin:round"
       d="m -757.16602,266.84766 a 475.03578,475.03578 0 0 0 -1.99609,1.14843 h 131.98828 v -1.14843 z m -20.36718,12.35351 a 475.03578,475.03578 0 0 0 -3.59766,2.33008 h 153.95703 v -2.33008 z m -20.01758,13.57031 a 475.03578,475.03578 0 0 0 -5.93945,4.32227 h 176.3164 v -4.32227 z m -11.73633,15.61524 v 8.83398 h 182.11328 v -8.83398 z m 0,20.17773 v 12.51172 h 182.11328 v -12.51172 z m 396.70117,0 v 12.51172 h 182.11328 v -12.51172 z m -396.70117,23.91993 v 23.22265 h 182.11328 v -23.22265 z m 396.70117,0 v 23.22265 h 182.11328 v -23.22265 z m 198.35156,0 v 23.22265 h 58.73047 a 475.03578,475.03578 0 0 0 -20.58789,-23.22265 z m -681.62695,34.70312 a 475.03578,475.03578 0 0 0 -22.71289,31.7793 h 93.04883 v -31.7793 z m 86.57422,0 v 31.7793 h 182.11328 v -31.7793 z m 396.70117,0 v 31.7793 h 182.11328 v -31.7793 z m 198.35156,0 v 31.7793 h 90.67383 a 475.03578,475.03578 0 0 0 -22.71484,-31.7793 z m -711.66601,43.33594 a 475.03578,475.03578 0 0 0 -25.81836,48.03711 h 126.19336 v -48.03711 z m 116.61328,0 v 48.03711 h 182.11328 v -48.03711 z m 396.70117,0 v 48.03711 h 182.11328 v -48.03711 z m 198.35156,0 v 48.03711 h 123.814458 a 475.03578,475.03578 0 0 0 -25.816408,-48.03711 z m -742.7207,59.68945 a 475.03578,475.03578 0 0 0 -24.20508,70.63086 h 155.63477 v -70.63086 z m 147.66797,0 v 70.63086 h 182.11328 v -70.63086 z m 198.35156,0 v 70.63086 h 182.11133 v -70.63086 z m 198.34961,0 v 70.63086 h 182.11328 v -70.63086 z m 198.35156,0 v 70.63086 h 153.257818 a 475.03578,475.03578 0 0 0 -24.205079,-70.63086 z m -769.78124,82.36719 a 475.03578,475.03578 0 0 0 -11.68946,87.03906 h 170.17969 v -87.03906 z m 174.72851,0 v 87.03906 h 182.11328 v -87.03906 z m 198.35156,0 v 87.03906 h 182.11133 v -87.03906 z m 198.34961,0 v 87.03906 h 182.11328 v -87.03906 z m 198.35156,0 v 87.03906 h 167.802739 a 475.03578,475.03578 0 0 0 -11.6875,-87.03906 z m -781.80859,98.89453 a 475.03578,475.03578 0 0 0 -0.0606,7.58203 475.03578,475.03578 0 0 0 18.30664,130.60352 h 152.27149 V 671.47461 Z m 186.75586,0 v 138.18555 h 182.11328 V 671.47461 Z m 198.35156,0 v 138.18555 h 182.11133 V 671.47461 Z m 198.34961,0 v 138.18555 h 182.11328 V 671.47461 Z m 198.35156,0 v 138.18555 h 149.894536 a 475.03578,475.03578 0 0 0 18.306641,-130.60352 475.03578,475.03578 0 0 0 -0.06055,-7.58203 z m -759.95507,150.20508 a 475.03578,475.03578 0 0 0 120.20117,196.23241 h 28.46289 V 821.67969 Z m 164.90234,0 v 196.23241 h 182.11328 V 821.67969 Z m 198.35156,0 v 196.23241 h 182.11133 V 821.67969 Z m 198.34961,0 v 196.23241 h 182.11328 V 821.67969 Z m 198.35156,0 v 196.23241 h 26.08594 A 475.03578,475.03578 0 0 0 -67.949219,821.67969 Z m -626.10156,209.12691 a 475.03578,475.03578 0 0 0 319.26758,123.2852 475.03578,475.03578 0 0 0 319.26563,-123.2852 z"
       transform="scale(0.26458333)" />
  </g>
</svg>
