<?xml version="1.0" encoding="UTF-8" standalone="no"?>
<svg
   xmlns:dc="http://purl.org/dc/elements/1.1/"
   xmlns:cc="http://creativecommons.org/ns#"
   xmlns:rdf="http://www.w3.org/1999/02/22-rdf-syntax-ns#"
   xmlns:svg="http://www.w3.org/2000/svg"
   xmlns="http://www.w3.org/2000/svg"
   width="2015.761"
   height="2078.3467"
   viewBox="0 0 155.42001 160.24552"
   version="1.1"
   id="svg10">
  <metadata
     id="metadata16">
    <rdf:RDF>
      <cc:Work
         rdf:about="">
        <dc:format>image/svg+xml</dc:format>
        <dc:type
           rdf:resource="http://purl.org/dc/dcmitype/StillImage" />
        <dc:title></dc:title>
      </cc:Work>
    </rdf:RDF>
  </metadata>
  <defs
     id="defs14" />
  <path
     id="path4"
     style="clip-rule:evenodd;fill:#ffffff;fill-opacity:0.55;fill-rule:evenodd;stroke-width:1"
     d="M 43.028889,1.3770626e-4 C 38.986129,-0.00833276 34.674307,0.37303961 30.356839,1.4013828 21.342839,3.5513833 12.121861,8.3174411 4.6618618,17.823442 c -4.9210005,6.294 -4.87012062,20.616922 -0.3111205,37.090922 3.2890003,11.914998 8.8321047,25.357971 16.3701047,37.867974 -1.684,-0.414002 -4.352028,-0.983017 -8.574028,-1.864012 -3.2890004,-0.673999 -5.8539744,-0.440926 -7.7189743,0.466076 -3.2370001,1.553999 -4.63596836,4.117954 -4.40296877,7.459958 0.10400035,1.71 0.8029205,3.39401 1.94292037,4.999 1.8909996,2.56401 6.0090202,5.802 10.9050207,8.081 2.383,1.088 5.464979,1.943 8.650979,2.48701 3.212,0.543 6.554081,0.77593 9.429082,0.64693 h 0.284917 l 1.114069,-0.1039 c 0.026,0.25899 0.05191,0.51794 0.103907,0.80294 0.052,0.569 0.104111,0.93103 0.130111,1.19103 0.414,16.732 3.107999,26.34202 7.329998,32.32502 4.843001,6.942 10.878883,8.78098 17.664884,10.23098 17.457998,3.73 21.136121,-7.51205 23.183128,-13.83204 0.129,-0.36301 0.231963,-0.67302 0.360963,-1.01002 0.881003,-2.408 1.450913,-5.43889 1.839918,-8.85789 0.362998,-3.263 0.54304,-6.63007 0.674044,-10.02407 0.051,-0.983 0.07605,-2.38302 0.129054,-3.78102 0.025,-0.98401 -0.02606,-1.91702 -0.104057,-2.77102 a 24.9,24.9 0 0 0 6.060973,1.81311 c 5.335995,0.906 10.129097,0.052 13.004094,-0.67405 2.40801,-0.595 5.46401,-1.99393 7.355,-3.78193 0.311,-0.285 0.62096,-0.621 0.88096,-0.932 1.60499,1.32099 3.2629,2.25287 4.9469,2.84887 6.267,2.254 11.78511,-0.10288 16.57611,-5.43888 3.472,-3.833 6.57993,-9.47913 9.32593,-15.98113 7.926,-18.804003 13.15797,-45.922974 13.49398,-52.605974 C 158.10475,-11.420675 107.82875,1.9443009 94.12775,6.6073007 A 33.225,33.225 0 0 0 86.459831,3.2664483 C 82.729825,2.1534481 78.586766,1.5563471 74.001764,1.634347 c -2.330998,0.026 -4.636977,0.1820272 -6.967975,0.4150275 a 67.046,67.046 0 0 0 -4.817998,0.699042 C 58.456648,1.6693846 51.306923,0.01748035 43.028889,1.3770626e-4 Z M 43.593905,4.1502646 c 5.748891,0.017033 10.771036,0.8755648 14.194974,1.6771275 0.467,0.1040004 0.828967,0.1810157 1.139967,0.2590163 0.130003,0.051999 2.435002,0.6999703 4.067005,1.1399706 3.393,-0.8299997 7.096976,-1.3219346 11.059977,-1.3729347 8.184004,-0.129 14.505044,1.9429242 19.401046,5.2839237 8.235996,-3.0559998 60.013916,-20.1769818 57.372916,32.870018 -0.338,6.45 -5.41401,32.791987 -13.13301,51.078987 -2.564,6.059997 -5.41402,11.267007 -8.52102,14.737997 -3.574,3.93701 -7.48692,5.72406 -11.75992,4.19606 -2.019,-0.725 -4.04106,-2.17608 -5.98206,-4.53308 -5.467,-6.579 -10.46491,-11.991951 -12.329911,-13.960953 a 20.118,20.118 0 0 1 -6.684115,2.201034 20.077,20.077 0 0 1 -2.20088,0.181916 c 0,0.103995 0,0.206966 -0.025,0.310969 a 37.807,37.807 0 0 1 1.579997,1.865064 c 1.968001,2.513 2.588983,3.28993 9.479979,4.71394 3.107,0.648 4.97191,1.5021 5.98191,2.4611 1.062,0.98399 1.39804,2.097 1.24403,3.238 -0.156,0.98399 -0.67394,1.8369 -1.45094,2.5629 -1.321,1.243 -3.57503,2.25412 -5.38904,2.72012 -2.48599,0.622 -6.630922,1.37294 -11.161922,0.59694 -3.42,-0.597 -7.019079,-2.04706 -10.283078,-5.00006 0.051,6.321 -0.05291,12.40803 -0.284916,17.56203 -0.336005,7.072 -0.959023,12.58906 -1.91702,14.94507 -0.959,2.38299 -2.461094,5.93192 -5.621097,8.59992 -3.210999,2.69501 -7.977986,4.40408 -15.229982,2.85008 -5.802,-1.244 -9.815928,-3.13507 -12.691929,-6.11308 -2.875999,-2.97799 -4.42908,-6.9159 -5.36208,-12.2769 -0.543,-3.15999 -1.345977,-8.962 -2.071977,-14.816 -0.595,-4.66301 -1.13999,-9.27312 -1.501991,-12.56213 -0.440999,0.129 -0.933038,0.25803 -1.425039,0.36202 -1.994,0.38801 -4.455029,0.49208 -7.019028,0.36308 -4.378001,-0.259 -9.170008,-1.24406 -12.304007,-2.69407 -4.222001,-1.969 -7.6658609,-4.61091 -9.1688612,-6.68291 -0.6480002,-0.908 -1.0360172,-1.788012 -1.0880174,-2.643016 -0.1039996,-1.397997 0.4920128,-2.459983 1.8390125,-3.10698 1.0360003,-0.492006 2.6420009,-0.596117 4.9210001,-0.13011 11.734,2.434994 15.23095,0.906994 16.266951,-0.07801 C 18.702824,81.540314 12.278867,66.517413 8.6788668,53.460411 4.4828663,38.282411 4.1458872,25.486379 8.1868872,20.306379 14.325887,12.484379 21.811779,8.2103559 29.270779,6.0603555 34.211467,4.632793 39.122546,4.1370161 43.593905,4.1502646 Z m -0.167909,4.466367 c -4.054703,-0.00466 -8.480679,0.4453304 -12.912242,1.7207994 -6.658,1.942999 -13.340004,5.749981 -18.805004,12.71798 -3.1600004,4.066 -2.5639727,15.359991 1.269027,29.216991 3.315,12.044 9.116995,25.797903 17.068995,38.308901 0.181,-0.207004 0.363085,-0.440987 0.544084,-0.672988 0.077,-0.07801 0.154964,-0.181977 0.232964,-0.285973 -4.61,-7.563005 -3.729978,-14.866985 -2.900978,-21.73098 0.337,-2.694004 0.647986,-5.284028 0.569986,-7.745028 -0.104,-2.59 -0.439995,-4.792025 -0.750996,-6.916025 -0.440999,-2.746 -0.829997,-5.361976 -0.725997,-8.547976 0,-0.077 -0.025,-0.154963 -0.025,-0.232963 -0.13,-0.751 0.155005,-2.460933 0.932005,-4.635932 a 45.98,45.98 0 0 1 3.263902,-7.14899 C 35.382743,24.996449 43.049771,15.232397 55.24977,9.8443971 52.139833,9.2111474 48.021328,8.6219185 43.425996,8.6166316 Z m 31.309451,1.7141734 c -0.199579,2.31e-4 -0.400516,0.0021 -0.602663,0.0056 -21.447004,0.337 -33.490955,14.400946 -39.035955,24.475946 -1.399,2.512 -2.357082,4.766095 -2.953082,6.475095 -0.051,0.130001 -0.102905,0.259977 -0.128906,0.388976 12.666001,-1.320999 17.743005,3.082997 18.805005,9.738997 1.502,9.351 -6.112961,23.000939 -9.971961,29.91694 -0.906,1.631996 -1.606012,2.875056 -1.839013,3.445059 -1.527,3.702997 -3.419,6.087034 -4.921,7.926034 -0.465,0.596001 -0.880022,1.113944 -1.191021,1.553945 2.927,0.829999 7.122911,2.358069 6.682911,10.853073 0.206999,2.514 0.98401,9.58401 1.86401,16.47401 0.726,5.646 1.502979,11.34389 2.046979,14.60789 0.777,4.455 1.994057,7.66706 4.196057,9.92107 2.176,2.27999 5.490988,3.78099 10.386988,4.84299 5.594003,1.192 9.116943,0.026 11.395943,-1.91596 2.357005,-1.995 3.601122,-4.87012 4.378121,-6.81212 0.725002,-1.865 1.268998,-6.83788 1.579998,-13.49488 0.310005,-6.683 0.362011,-14.89413 0.181013,-23.20812 -0.026,-1.78701 -0.104019,-3.41897 0.491975,-5.12897 0.674006,-1.839006 1.865007,-3.496985 3.341009,-4.558986 1.373001,-0.983996 3.340909,-1.656992 5.024902,-1.501993 a 6.18,6.18 0 0 1 0.932006,0.154961 c -0.286998,-1.138001 -0.698979,-2.377892 -1.167978,-3.694894 -1.284996,-3.615 -0.435035,-1.692058 -2.482034,-6.199064 -2.799002,-6.241994 -6.372906,-14.220057 -2.3849,-32.740055 1.139997,-5.180001 4.040921,-7.899956 7.692915,-9.039956 2.332,-0.724 4.922016,-0.775921 7.48601,-0.387921 2.461001,0.389 4.921986,1.140926 7.095984,2.020926 a 27.88,27.88 0 0 1 3.93809,2.020023 C 104.72953,35.726978 100.0813,10.297713 74.735447,10.330805 Z m 44.070493,0.40283 c -8.49557,-0.005 -16.79305,2.260569 -21.309178,3.746694 13.338008,13.107 12.744078,36.548054 12.717078,36.729054 0.027,0.569 -0.025,1.294986 -0.078,2.252986 -0.23299,3.652 -0.64706,10.671986 0.44094,18.467979 a 23.585,23.585 0 0 1 0.12905,5.725008 c -0.492,5.206 -2.66806,9.86802 -5.90405,13.41702 a 22.985,22.985 0 0 1 -1.96897,1.890967 292.666,292.666 0 0 1 12.04303,13.649087 c 1.426,1.71 2.77195,2.74594 4.01595,3.18695 2.279,0.82899 4.63602,-0.41499 6.94102,-2.97899 2.771,-3.08199 5.38898,-7.87397 7.74398,-13.468975 7.51199,-17.795002 12.45908,-43.308037 12.77008,-49.550037 1.32812,-26.74375 -13.38164,-33.059394 -27.54092,-33.067743 z M 35.857312,45.903473 c -1.306891,0.0093 -2.755888,0.108466 -4.358545,0.306903 0.025,2.253 0.336044,4.274038 0.674044,6.371038 0.336,2.254 0.698949,4.610906 0.80295,7.433906 0.077,2.719997 -0.258888,5.51802 -0.595888,8.393022 -0.673,5.542999 -1.372019,11.397045 1.320981,17.095043 0.414,-0.725001 0.803021,-1.554052 1.191022,-2.435048 0.336999,-0.802003 1.062978,-2.148936 2.046978,-3.884935 3.624999,-6.501005 10.722927,-19.245012 9.478927,-27.067012 -0.589782,-3.693937 -3.50326,-6.263113 -10.560469,-6.212917 z m 55.501983,0.762289 c -1.056503,0.005 -2.064108,0.132728 -2.981542,0.424667 -2.15,0.672999 -3.911936,2.382897 -4.610939,5.697897 -3.702997,17.122001 -0.467025,24.322039 2.07198,29.969042 1.609999,3.541999 1.814983,4.372978 2.558983,6.419978 0.541004,1.486002 1.014004,2.906074 1.352006,4.277078 0.673998,-0.02601 1.372978,-0.05111 2.046976,-0.155115 3.731001,-0.518999 7.1241,-2.43487 9.688101,-5.257867 a 18.475,18.475 0 0 0 4.76589,-10.801113 c 0.156,-1.502001 0.12809,-3.081891 -0.10391,-4.687888 -1.166,-8.313998 -0.72398,-15.593087 -0.49198,-19.349087 0.025,-0.673 0.078,-1.347023 0.078,-2.020023 -0.025,-0.104001 -2.51102,-1.242912 -5.778014,-2.590912 -1.890998,-0.751 -3.98897,-1.424106 -6.060973,-1.735105 -0.861435,-0.125125 -1.712869,-0.195422 -2.534588,-0.191552 z m -52.754307,1.380163 c 0.345007,0.0049 0.70682,0.03167 1.07582,0.08042 0.984999,0.155 1.865004,0.440048 2.487004,0.777048 0.746,0.427 1.047076,0.906982 1.039075,1.384982 -0.012,0.698999 -0.687007,1.393971 -1.608006,1.904971 -0.782001,0.421 -1.56503,0.572064 -2.31503,0.488064 -0.964,-0.108 -1.874076,-0.605069 -2.658075,-1.420069 -0.647,-0.674 -1.035907,-1.476921 -0.957907,-1.942921 0.079,-0.543999 0.595879,-0.932069 1.396879,-1.114069 0.436874,-0.11375 0.965231,-0.166547 1.54024,-0.158422 z m 52.51125,1.127774 c 0.466331,0.0088 0.91657,0.05622 1.329569,0.144717 1.152997,0.288 1.644941,0.850977 1.681943,1.523977 0.037,0.673001 -0.384911,1.45495 -1.060906,2.17995 -0.699003,0.725 -1.684071,1.373044 -2.797075,1.528043 h -0.02696 c -1.139003,0.156 -2.201983,-0.232995 -2.978982,-0.750995 -0.828003,-0.57 -1.372986,-1.346966 -1.448986,-1.890966 -0.078,-0.699 0.387926,-1.347013 1.24192,-1.839013 1.116751,-0.60075 2.660487,-0.92201 4.059472,-0.895713 z M 30.228836,98.14336 c -5.293999,3.997 -14.160025,2.32997 -19.996025,1.242976 1.398,1.347004 3.676939,2.875014 6.396939,4.145014 2.643,1.21599 6.787056,2.04598 10.672057,2.27798 2.228,0.105 4.326013,0.053 5.906013,-0.28402 1.01,-0.182 1.682967,-0.38889 1.890967,-0.59588 0.259,-5.336005 -2.202032,-6.009101 -3.756031,-6.450104 -0.388,-0.129 -0.77692,-0.231962 -1.11392,-0.335966 z m 53.730587,0.668771 c -0.610473,-0.0044 -1.416625,0.314632 -1.92756,0.679318 -0.725001,0.518001 -1.346053,1.398951 -1.709051,2.382941 -0.336005,1.01101 -0.46694,2.254 0.182062,3.16 3.186002,4.43 7.097908,6.29402 10.749909,6.91602 3.702997,0.64701 7.198974,-3e-5 9.298977,-0.51803 1.035,-0.26 2.22713,-0.75198 3.00413,-1.29598 -0.62101,-0.311 -1.65905,-0.64806 -3.18605,-0.95806 -8.521001,-1.762 -9.376992,-2.82299 -12.122994,-6.31999 A 41.228,41.228 0 0 0 85.08885,99.284383 1.54,1.54 0 0 0 84.07884,98.817405 c -0.03881,-0.0032 -0.07872,-0.005 -0.119417,-0.0052 z" />
</svg>
