<?xml version="1.0" encoding="UTF-8" standalone="no"?>
<svg
   xmlns:dc="http://purl.org/dc/elements/1.1/"
   xmlns:cc="http://creativecommons.org/ns#"
   xmlns:rdf="http://www.w3.org/1999/02/22-rdf-syntax-ns#"
   xmlns:svg="http://www.w3.org/2000/svg"
   xmlns="http://www.w3.org/2000/svg"
   width="256px"
   height="296px"
   viewBox="0 0 256 296"
   version="1.1"
   preserveAspectRatio="xMidYMid"
   id="svg58">
  <metadata
     id="metadata64">
    <rdf:RDF>
      <cc:Work
         rdf:about="">
        <dc:format>image/svg+xml</dc:format>
        <dc:type
           rdf:resource="http://purl.org/dc/dcmitype/StillImage" />
        <dc:title></dc:title>
      </cc:Work>
    </rdf:RDF>
  </metadata>
  <defs
     id="defs62" />
  <path
     d="m 219.013,94.362 v 106.594 l -90.576,53.588 -0.819,0.745 v 39.839 L 128.437,295.9 256,222.216 V 73.684 l -1.205,-0.295 -35.963,20.106 0.181,0.867"
     fill="#2f406a"
     id="path2"
     style="fill:#1152cb;fill-opacity:1" />
  <path
     d="m 37.57,201.829 90.867,52.715 V 295.9 L 0,221.925 V 73.975 l 1.318,-0.199 35.859,20.848 0.393,1.194 v 106.011"
     fill="#2379bd"
     id="path4"
     style="fill:#76a1ff;fill-opacity:1" />
  <path
     d="M 37.57,95.818 0,73.975 128.146,0 256,73.684 219.013,94.362 128.146,42.521 37.57,95.818"
     fill="#03afef"
     id="path6"
     style="fill:#9ab9f4;fill-opacity:1" />
  <path
     d="m 82.57,215.748 -0.983,-1.004 v -40.027 l 0.983,-0.507 0.24,-0.987 34.314,-20.017 1.05,0.235 v 41.241 L 82.57,215.748"
     fill="#2f406a"
     id="path14"
     style="fill:#1152cb;fill-opacity:1" />
  <path
     d="m 46.373,195.968 v -42.824 l 0.994,-0.049 34.906,20.315 0.297,0.8 v 41.538 l -36.197,-19.78"
     fill="#2379bd"
     id="path16"
     style="fill:#76a1ff;fill-opacity:1" />
  <path
     d="M 81.977,132.079 46.373,153.144 82.57,174.21 118.174,153.441 81.977,132.079"
     fill="#03afef"
     id="path18"
     style="fill:#9ab9f4;fill-opacity:1" />
  <path
     d="m 174.35,216.737 -0.984,-1.004 v -40.027 l 0.984,-0.507 0.239,-0.987 34.315,-20.017 1.05,0.235 v 41.241 l -35.604,21.066"
     fill="#2f406a"
     id="path20"
     style="fill:#1152cb;fill-opacity:1" />
  <path
     d="m 138.152,196.957 v -42.824 l 0.995,-0.049 34.906,20.315 0.297,0.8 v 41.538 l -36.198,-19.78"
     fill="#2379bd"
     id="path22"
     style="fill:#76a1ff;fill-opacity:1" />
  <path
     d="m 173.756,133.068 -35.604,21.065 36.198,21.066 35.604,-20.769 -36.198,-21.362"
     fill="#03afef"
     id="path24"
     style="fill:#9ab9f4;fill-opacity:1" />
  <path
     d="m 130.042,242.847 -0.983,-1.004 v -40.027 l 0.983,-0.507 0.24,-0.988 34.315,-20.016 1.049,0.235 v 41.241 l -35.604,21.066"
     fill="#2f406a"
     id="path26"
     style="fill:#1152cb;fill-opacity:1" />
  <path
     d="m 93.845,223.067 v -42.824 l 0.994,-0.049 34.907,20.314 0.296,0.801 v 41.538 l -36.197,-19.78"
     fill="#2379bd"
     id="path28"
     style="fill:#76a1ff;fill-opacity:1" />
  <path
     d="m 129.449,159.177 -35.604,21.066 36.197,21.066 35.604,-20.769 -36.197,-21.363"
     fill="#03afef"
     id="path30"
     style="fill:#9ab9f4;fill-opacity:1" />
  <path
     d="m 126.878,132.87 -0.984,-1.005 V 91.839 l 0.984,-0.507 0.239,-0.988 34.315,-20.016 1.05,0.235 v 41.241 l -35.604,21.066"
     fill="#2f406a"
     id="path32"
     style="fill:#1152cb;fill-opacity:1" />
  <path
     d="M 90.68,113.09 V 70.266 l 0.995,-0.049 34.906,20.314 0.297,0.801 V 132.87 L 90.68,113.09"
     fill="#2379bd"
     id="path34"
     style="fill:#76a1ff;fill-opacity:1" />
  <path
     d="M 126.284,49.2 90.68,70.266 126.878,91.332 162.482,70.563 126.284,49.2"
     fill="#03afef"
     id="path36"
     style="fill:#9ab9f4;fill-opacity:1" />
  <path
     d="m 82.57,158.979 -0.983,-1.004 v -40.026 l 0.983,-0.508 0.24,-0.987 34.314,-20.017 1.05,0.235 v 41.242 L 82.57,158.979"
     fill="#2f406a"
     id="path38"
     style="fill:#1152cb;fill-opacity:1" />
  <path
     d="M 46.373,139.199 V 96.376 l 0.994,-0.049 34.906,20.314 0.297,0.8 v 41.538 l -36.197,-19.78"
     fill="#2379bd"
     id="path40"
     style="fill:#76a1ff;fill-opacity:1" />
  <path
     d="M 81.977,75.31 46.373,96.376 82.57,117.441 118.174,96.672 81.977,75.31"
     fill="#03afef"
     id="path42"
     style="fill:#9ab9f4;fill-opacity:1" />
  <path
     d="m 174.35,159.968 -0.984,-1.004 v -40.026 l 0.984,-0.508 0.239,-0.987 34.315,-20.017 1.05,0.235 v 41.242 l -35.604,21.065"
     fill="#2f406a"
     id="path44"
     style="fill:#1152cb;fill-opacity:1" />
  <path
     d="M 138.152,140.188 V 97.365 l 0.995,-0.049 34.906,20.314 0.297,0.8 v 41.538 l -36.198,-19.78"
     fill="#2379bd"
     id="path46"
     style="fill:#76a1ff;fill-opacity:1" />
  <path
     d="M 173.756,76.299 138.152,97.365 174.35,118.43 209.954,97.661 173.756,76.299"
     fill="#03afef"
     id="path48"
     style="fill:#9ab9f4;fill-opacity:1" />
  <path
     d="m 130.042,186.078 -0.983,-1.004 v -40.027 l 0.983,-0.507 0.24,-0.987 34.315,-20.017 1.049,0.235 v 41.241 l -35.604,21.066"
     fill="#2f406a"
     id="path50"
     style="fill:#1152cb;fill-opacity:1" />
  <path
     d="m 93.845,166.298 v -42.824 l 0.994,-0.049 34.907,20.315 0.296,0.8 v 41.538 l -36.197,-19.78"
     fill="#2379bd"
     id="path52"
     style="fill:#76a1ff;fill-opacity:1" />
  <path
     d="m 129.449,102.408 -35.604,21.066 36.197,21.066 35.604,-20.769 -36.197,-21.363"
     fill="#03afef"
     id="path54"
     style="fill:#9ab9f4;fill-opacity:1" />
</svg>
