<?xml version="1.0" encoding="UTF-8" standalone="no"?>
<svg
   xmlns:dc="http://purl.org/dc/elements/1.1/"
   xmlns:cc="http://creativecommons.org/ns#"
   xmlns:rdf="http://www.w3.org/1999/02/22-rdf-syntax-ns#"
   xmlns:svg="http://www.w3.org/2000/svg"
   xmlns="http://www.w3.org/2000/svg"
   version="1.1"
   id="svg2"
   width="398.06882"
   height="141.08481"
   viewBox="0 0 398.06882 141.08481">
  <metadata
     id="metadata8">
    <rdf:RDF>
      <cc:Work
         rdf:about="">
        <dc:format>image/svg+xml</dc:format>
        <dc:type
           rdf:resource="http://purl.org/dc/dcmitype/StillImage" />
        <dc:title></dc:title>
      </cc:Work>
    </rdf:RDF>
  </metadata>
  <defs
     id="defs6" />
  <g
     id="g10"
     transform="translate(-1.2737633,-136.48962)">
    <path
       style="fill:#ffffff;fill-opacity:0.55;stroke-width:0.999999"
       d="m 203.57372,276.38717 c -6.87135,-1.92704 -15.74618,-5.9141 -36,-16.17319 -10.175,-5.15391 -20.35197,-9.65687 -22.61548,-10.00658 -5.45238,-0.84239 -12.172,2.12051 -15.90304,7.01215 -2.51049,3.29142 -2.96001,3.51465 -4.32631,2.14835 -2.04172,-2.04172 -0.57723,-4.74256 7.13573,-13.1599 10.99937,-12.00389 12.87013,-11.71824 56.16827,8.57635 13.21114,6.19229 23.67973,10.48657 26.2781,10.77944 4.00723,0.45168 4.59374,0.19794 8.12639,-3.51564 2.50899,-2.63751 4.31626,-5.83745 5.29947,-9.38322 1.15861,-4.17832 1.97751,-5.45218 3.66445,-5.70032 1.73978,-0.25591 2.17242,0.18238 2.17242,2.20078 0,7.50668 -4.60417,20.14943 -8.67851,23.83063 -5.0167,4.53263 -12.82369,5.77432 -21.32149,3.39115 z M 34.073719,232.71984 c -3.3,-0.50769 -9.57318,-1.82591 -13.94039,-2.92938 -4.36722,-1.10347 -9.22149,-2.00631 -10.7872699,-2.00631 h -2.84687 l 3.8988299,-5.74999 c 2.14435,-3.1625 5.08577,-8.09685 6.53649,-10.96523 l 2.63766,-5.21523 -2.24923,-1.16696 c -5.61443,-2.91293 -11.1397699,-8.51396 -13.5132899,-13.69841 -2.98632997,-6.523 -3.38510997,-15.73419 -0.92992,-21.47984 2.16104,-5.0573 10.4260299,-12.94435 20.1939899,-19.27054 11.16891,-7.23353 18.24191,-9.7574 27.5,-9.81289 6.68538,-0.0401 8.31155,0.35715 14.97178,3.65707 4.10949,2.03612 8.42724,3.70203 9.59502,3.70203 2.62213,0 4.86218,-2.38912 6.97001,-7.43387 l 1.61309,-3.86067 2.09378,2.09378 2.09378,2.09378 -4.53539,9.80349 c -2.49447,5.39192 -4.87362,10.92849 -5.28701,12.30349 -0.85037,2.82846 -3.3621,6 -4.75176,6 -0.50969,0 -2.83388,-1.56278 -5.16487,-3.47286 -14.30182,-11.71926 -33.81979,-12.56894 -44.45353,-1.9352 -4.16564,4.16564 -4.3778,4.64942 -3.89959,8.89212 0.59094,5.24285 4.59003,13.84206 8.2621,17.76594 4.33389,4.63108 6.51952,3.79944 17.41439,-6.62624 10.91752,-10.44736 14.6302,-12.36003 20.77849,-10.70446 5.68705,1.53136 12.86922,6.46642 15.68454,10.77724 3.36562,5.15346 4.99522,14.64538 3.5905,20.91354 -2.24453,10.01554 -11.99882,22.82496 -20.47533,26.88839 -4.64166,2.2251 -20.96092,2.98169 -31,1.43721 z m 30.01431,-15.94452 c 1.7877,-1.10487 3.81285,-3.36679 4.50032,-5.02649 2.90492,-7.01309 -2.08582,-19.84299 -8.81198,-22.65336 -5.48887,-2.29339 -9.34948,-0.58424 -19.57111,8.66441 -8.84754,8.00536 -8.88156,8.02428 -14.42431,8.02428 h -5.55586 l 2.22549,2.36892 c 3.06829,3.26605 10.7729,7.31275 17.22777,9.04856 8.35045,2.24557 20.42777,2.03463 24.40968,-0.42632 z m 143.902091,16.09216 c -0.22902,-0.22916 -0.4164,-1.64298 -0.4164,-3.14182 0,-2.45135 0.46558,-2.81137 4.63393,-3.58333 3.87568,-0.71774 4.93929,-1.42833 6.5,-4.34257 1.70758,-3.18845 1.86607,-6.14548 1.86607,-34.81574 0,-20.53124 -0.37245,-32.02728 -1.08049,-33.35026 -1.23935,-2.31574 -6.66664,-4.8496 -10.38739,-4.8496 -2.71207,0 -3.12733,-1.30263 -1.65285,-5.1849 l 0.87926,-2.3151 23.68145,0.28551 23.68144,0.28552 -0.31071,3.03804 c -0.27184,2.65797 -0.99879,3.31033 -5.81071,5.21449 -8.8396,3.49797 -8.99659,4.11663 -8.99845,35.45856 -0.002,29.37889 0.42399,31.78537 6.16967,34.87507 3.92799,2.11225 15.05987,2.39266 21.42774,0.53976 8.06019,-2.34532 11.28215,-5.58282 15.35764,-15.43171 1.50264,-3.63129 2.34493,-4.58676 3.61412,-4.09973 1.80804,0.69381 1.81277,0.54456 -0.64586,20.36474 l -1.30624,10.53023 -22.05931,-0.33448 c -12.13262,-0.18397 -29.40943,0.0274 -38.39291,0.46975 -8.98349,0.44233 -16.52099,0.61674 -16.75,0.38757 z m 87.94471,-2.78068 c -0.41574,-1.65646 -0.24865,-2.84014 0.43301,-3.06736 0.61051,-0.2035 2.59408,-1.36847 4.40795,-2.5888 2.85422,-1.9203 5.78696,-7.62542 21.79793,-42.40401 l 18.5,-40.18519 5.01723,-0.0286 5.01725,-0.0286 19.42583,39.57356 c 19.59284,39.91372 22.35807,44.42635 27.2234,44.42635 1.4405,0 1.85393,0.45949 1.42328,1.58179 -0.33384,0.86998 -0.60699,2.44498 -0.60699,3.5 0,1.83147 -0.97222,1.91821 -21.5,1.91821 h -21.5 v -3 c 0,-2.44279 0.41791,-3.00104 2.25,-3.00558 1.2375,-0.003 3.93399,-0.47325 5.99221,-1.04485 5.70476,-1.5843 5.7451,-4.02368 0.24759,-14.96987 l -4.66146,-9.28152 -13.57228,0.65091 c -7.46475,0.35801 -15.54232,0.65092 -17.95014,0.65092 h -4.37787 l -3.96402,8.1971 c -2.18022,4.50841 -3.96403,8.93866 -3.96403,9.84502 0,2.68689 3.32623,4.90378 8.40137,5.5994 4.21691,0.578 4.69128,0.88987 4.19057,2.75512 -0.31055,1.15684 -0.57078,2.44085 -0.57829,2.85335 -0.008,0.4125 -6.98007,0.75 -15.4946,0.75 h -15.48095 z m 59.4532,-35.82254 c 0.17287,-0.15146 -2.90404,-6.65704 -6.83757,-14.45684 -3.93352,-7.79981 -7.37787,-13.95546 -7.65411,-13.67922 -1.23957,1.23957 -13.24359,27.97482 -12.84799,28.61493 0.39832,0.64448 26.58095,0.18588 27.33967,-0.47887 z m -220.31431,35.80369 c -5.4088,-2.18129 -16.37356,-9.27434 -21.5741,-13.95619 -7.984,-7.1877 -14.925901,-21.02869 -14.925901,-29.75978 0,-2.39643 0.94928,-7.44205 2.109521,-11.21248 1.91013,-6.20738 2.88231,-7.61149 10.28565,-14.85534 8.89582,-8.70418 14.99514,-12.71635 27.78629,-18.27796 18.76396,-8.15861 39.18735,-4.3715 50.43248,9.35171 5.2771,6.43999 7.38923,12.94291 7.3687,22.68698 -0.0452,21.43652 -9.20461,40.5088 -23.98264,49.938 -10.70058,6.82756 -28.49786,9.71549 -37.5,6.08506 z m 29.0562,-15.87748 c 7.1452,-3.39062 9.81891,-7.58368 12.91159,-20.24872 2.94482,-12.05954 0.19316,-24.34678 -7.05606,-31.50812 -11.35088,-11.21326 -35.54264,-10.99513 -45.84957,0.4134 -8.28462,9.17009 -6.7096,25.14384 3.59042,36.4137 12.56912,13.75262 26.68471,19.54166 36.40362,14.92974 z"
       id="path837" />
  </g>
</svg>
